<svg width="40" height="40" viewBox="0 0 40 40" fill="none" xmlns="http://www.w3.org/2000/svg">
<path d="M15.7502 34.1347C17.3346 35.0219 18.8951 35.4676 20.3488 35.4676C21.5657 35.4672 22.7077 35.1547 23.7241 34.5273L27.4706 32.2162C27.6057 32.1329 27.7021 31.9998 27.7388 31.8451C27.7755 31.6909 27.7488 31.5282 27.6655 31.3931L24.4181 26.13C24.3348 25.9953 24.2013 25.8988 24.047 25.8622C23.8916 25.8259 23.7297 25.8522 23.595 25.9355L19.8203 28.2653C19.2399 28.6233 18.4954 28.7377 17.7791 28.5802C17.0628 28.4224 16.4513 28.007 16.1014 27.4394L10.971 19.1251C10.2292 17.9229 10.6031 16.3413 11.8045 15.5995C11.8045 15.5995 11.8049 15.5995 11.8049 15.5991L15.7227 13.1804C16.0037 13.007 16.0906 12.6387 15.9172 12.3577L12.6695 7.09583C12.4961 6.81482 12.1274 6.72673 11.8468 6.90092L7.93214 9.31721C3.56909 12.0101 3.72215 19.0792 8.30522 26.5083C10.4062 29.9147 13.0505 32.6232 15.7502 34.1347ZM8.56072 10.3344L11.9663 8.23263L14.5863 12.4769L11.1771 14.5815C11.1763 14.5819 11.1759 14.5823 11.1755 14.5827C9.41452 15.6712 8.86605 17.9899 9.95382 19.7525L15.0842 28.0664C15.6027 28.9079 16.4916 29.5205 17.5224 29.7477C18.5392 29.9705 19.6062 29.8019 20.4485 29.2821L23.7142 27.2664L26.3338 31.5115L23.096 33.5089C20.7315 34.9677 18.1139 34.0868 16.3346 33.0907C13.8094 31.6765 11.319 29.1159 9.32284 25.8801C5.10967 19.0506 4.79637 12.6579 8.56072 10.3344Z" fill="white"/>
<path d="M19.7624 13.3737C21.6972 13.4881 23.4096 14.4822 24.4611 16.1017C25.4663 17.6451 25.7083 19.5364 25.1243 21.291C25.0199 21.6043 25.1893 21.9431 25.5026 22.0468C25.5652 22.0679 25.6285 22.0775 25.6915 22.0775C25.9422 22.0775 26.1754 21.9192 26.2587 21.6685C26.9587 19.5663 26.6685 17.2991 25.4635 15.4496C24.2223 13.5371 22.1169 12.3146 19.8329 12.1795C19.5001 12.1656 19.2203 12.4115 19.2008 12.7411C19.1812 13.0712 19.4328 13.3542 19.7624 13.3737Z" fill="white"/>
<path d="M20.5995 8.93574C23.7324 9.29567 26.5134 11.0148 28.2294 13.6515C29.8919 16.2077 30.3631 19.3551 29.5216 22.2867C29.4304 22.6044 29.6137 22.9353 29.931 23.0261C29.9864 23.0421 30.0414 23.0497 30.0964 23.0497C30.3559 23.0497 30.5955 22.8787 30.6704 22.6168C31.6075 19.3519 31.0829 15.8462 29.2315 12.9994C27.3206 10.063 24.2243 8.14891 20.7358 7.74792C20.4141 7.71006 20.1116 7.94563 20.0737 8.27367C20.0358 8.60172 20.271 8.89787 20.5995 8.93574Z" fill="white"/>
<path d="M21.417 5.0271C25.5779 5.60547 29.2777 7.95719 31.568 11.4796C33.8117 14.9263 34.4846 19.1833 33.4147 23.1589C33.3286 23.4778 33.518 23.8058 33.8369 23.8915C33.8887 23.9054 33.9413 23.9122 33.9927 23.9122C34.2562 23.9122 34.4981 23.7368 34.5695 23.4698C35.7278 19.1665 34.9992 14.5584 32.5705 10.8275C30.0912 7.0149 26.0861 4.46907 21.5824 3.84287C21.2567 3.79942 20.953 4.02543 20.908 4.35268C20.8621 4.67953 21.0901 4.98166 21.417 5.0271Z" fill="white"/>
</svg>
